<?xml version="1.0" encoding="utf-8"?>
<svg version="1.1" xmlns:xlink="http://www.w3.org/1999/xlink" width="49px" height="44px" xmlns="http://www.w3.org/2000/svg">
  <g transform="matrix(1 0 0 1 -621 -403 )">
    <path d="M 621 403  L 670 403  L 670 447  L 621 447  L 621 403  " fill-rule="nonzero" fill="#cccccc" stroke="none" />
    <path d="M 624 406  L 667 406  L 667 444  L 624 444  L 624 406  " fill-rule="nonzero" fill="#ffffff" stroke="none" />
    <path d="M 649.78 416.2  C 647.932 416.2  646.48 414.748  646.48 412.9  C 646.48 411.052  647.932 409.6  649.78 409.6  C 651.628 409.6  653.08 411.052  653.08 412.9  C 653.08 414.748  651.628 416.2  649.78 416.2  " fill-rule="nonzero" fill="#cccccc" stroke="none" />
    <path d="M 625 443  L 625 423.2  L 635.25 414.2  L 649.6 423.604081632653  L 657.8 419.6  L 666 423.604081632653  L 666 443  L 625 443  " fill-rule="nonzero" fill="#169bd5" stroke="none" />
  </g>
</svg>