<?xml version="1.0" encoding="utf-8"?>
<svg version="1.1" xmlns:xlink="http://www.w3.org/1999/xlink" width="12px" height="12px" viewBox="48 267.5  12 12" xmlns="http://www.w3.org/2000/svg">
  <path d="M 54 267.5  C 57.36 267.5  60 270.14  60 273.5  C 60 276.86  57.36 279.5  54 279.5  C 50.64 279.5  48 276.86  48 273.5  C 48 270.14  50.64 267.5  54 267.5  Z " fill-rule="nonzero" fill="#ffffff" stroke="none" />
  <path d="M 54 268  C 57.08 268  59.5 270.42  59.5 273.5  C 59.5 276.58  57.08 279  54 279  C 50.92 279  48.5 276.58  48.5 273.5  C 48.5 270.42  50.92 268  54 268  Z " stroke-width="1" stroke="#797979" fill="none" />
  <path d="M 54 276.5  C 52.32 276.5  51 275.18  51 273.5  C 51 271.82  52.32 270.5  54 270.5  C 55.68 270.5  57 271.82  57 273.5  C 57 275.18  55.68 276.5  54 276.5  " fill-rule="nonzero" fill="#797979" stroke="none" />
</svg>