<?xml version="1.0" encoding="utf-8"?>
<svg version="1.1" xmlns:xlink="http://www.w3.org/1999/xlink" width="12px" height="12px" viewBox="63 818.5  12 12" xmlns="http://www.w3.org/2000/svg">
  <path d="M 69 818.5  C 72.36 818.5  75 821.14  75 824.5  C 75 827.86  72.36 830.5  69 830.5  C 65.64 830.5  63 827.86  63 824.5  C 63 821.14  65.64 818.5  69 818.5  Z " fill-rule="nonzero" fill="#ffffff" stroke="none" />
  <path d="M 69 819  C 72.08 819  74.5 821.42  74.5 824.5  C 74.5 827.58  72.08 830  69 830  C 65.92 830  63.5 827.58  63.5 824.5  C 63.5 821.42  65.92 819  69 819  Z " stroke-width="1" stroke="#797979" fill="none" />
  <path d="M 69 827.5  C 67.32 827.5  66 826.18  66 824.5  C 66 822.82  67.32 821.5  69 821.5  C 70.68 821.5  72 822.82  72 824.5  C 72 826.18  70.68 827.5  69 827.5  " fill-rule="nonzero" fill="#797979" stroke="none" />
</svg>