<?xml version="1.0" encoding="utf-8"?>
<svg version="1.1" xmlns:xlink="http://www.w3.org/1999/xlink" width="12px" height="12px" viewBox="127 290  12 12" xmlns="http://www.w3.org/2000/svg">
  <path d="M 133 290  C 136.36 290  139 292.64  139 296  C 139 299.36  136.36 302  133 302  C 129.64 302  127 299.36  127 296  C 127 292.64  129.64 290  133 290  Z " fill-rule="nonzero" fill="#ffffff" stroke="none" />
  <path d="M 133 290.5  C 136.08 290.5  138.5 292.92  138.5 296  C 138.5 299.08  136.08 301.5  133 301.5  C 129.92 301.5  127.5 299.08  127.5 296  C 127.5 292.92  129.92 290.5  133 290.5  Z " stroke-width="1" stroke="#797979" fill="none" />
  <path d="M 133 299  C 131.32 299  130 297.68  130 296  C 130 294.32  131.32 293  133 293  C 134.68 293  136 294.32  136 296  C 136 297.68  134.68 299  133 299  " fill-rule="nonzero" fill="#797979" stroke="none" />
</svg>