<?xml version="1.0" encoding="utf-8"?>
<svg version="1.1" xmlns:xlink="http://www.w3.org/1999/xlink" width="12px" height="12px" viewBox="210 290  12 12" xmlns="http://www.w3.org/2000/svg">
  <path d="M 216 290  C 219.36 290  222 292.64  222 296  C 222 299.36  219.36 302  216 302  C 212.64 302  210 299.36  210 296  C 210 292.64  212.64 290  216 290  Z " fill-rule="nonzero" fill="#ffffff" stroke="none" />
  <path d="M 216 290.5  C 219.08 290.5  221.5 292.92  221.5 296  C 221.5 299.08  219.08 301.5  216 301.5  C 212.92 301.5  210.5 299.08  210.5 296  C 210.5 292.92  212.92 290.5  216 290.5  Z " stroke-width="1" stroke="#797979" fill="none" />
  <path d="M 216 299  C 214.32 299  213 297.68  213 296  C 213 294.32  214.32 293  216 293  C 217.68 293  219 294.32  219 296  C 219 297.68  217.68 299  216 299  " fill-rule="nonzero" fill="#797979" stroke="none" />
</svg>