<?xml version="1.0" encoding="utf-8"?>
<svg version="1.1" xmlns:xlink="http://www.w3.org/1999/xlink" width="12px" height="12px" viewBox="127 501  12 12" xmlns="http://www.w3.org/2000/svg">
  <path d="M 133 501  C 136.36 501  139 503.64  139 507  C 139 510.36  136.36 513  133 513  C 129.64 513  127 510.36  127 507  C 127 503.64  129.64 501  133 501  Z " fill-rule="nonzero" fill="#ffffff" stroke="none" />
  <path d="M 133 501.5  C 136.08 501.5  138.5 503.92  138.5 507  C 138.5 510.08  136.08 512.5  133 512.5  C 129.92 512.5  127.5 510.08  127.5 507  C 127.5 503.92  129.92 501.5  133 501.5  Z " stroke-width="1" stroke="#797979" fill="none" />
  <path d="M 133 510  C 131.32 510  130 508.68  130 507  C 130 505.32  131.32 504  133 504  C 134.68 504  136 505.32  136 507  C 136 508.68  134.68 510  133 510  " fill-rule="nonzero" fill="#797979" stroke="none" />
</svg>