<?xml version="1.0" encoding="utf-8"?>
<svg version="1.1" xmlns:xlink="http://www.w3.org/1999/xlink" width="12px" height="12px" viewBox="2742 647.5  12 12" xmlns="http://www.w3.org/2000/svg">
  <path d="M 2748 647.5  C 2751.36 647.5  2754 650.14  2754 653.5  C 2754 656.86  2751.36 659.5  2748 659.5  C 2744.64 659.5  2742 656.86  2742 653.5  C 2742 650.14  2744.64 647.5  2748 647.5  Z " fill-rule="nonzero" fill="#ffffff" stroke="none" />
  <path d="M 2748 648  C 2751.08 648  2753.5 650.42  2753.5 653.5  C 2753.5 656.58  2751.08 659  2748 659  C 2744.92 659  2742.5 656.58  2742.5 653.5  C 2742.5 650.42  2744.92 648  2748 648  Z " stroke-width="1" stroke="#797979" fill="none" />
  <path d="M 2748 656.5  C 2746.32 656.5  2745 655.18  2745 653.5  C 2745 651.82  2746.32 650.5  2748 650.5  C 2749.68 650.5  2751 651.82  2751 653.5  C 2751 655.18  2749.68 656.5  2748 656.5  " fill-rule="nonzero" fill="#797979" stroke="none" />
</svg>