<?xml version="1.0" encoding="utf-8"?>
<svg version="1.1" xmlns:xlink="http://www.w3.org/1999/xlink" width="12px" height="12px" viewBox="2757 1121.5  12 12" xmlns="http://www.w3.org/2000/svg">
  <path d="M 2763 1121.5  C 2766.36 1121.5  2769 1124.14  2769 1127.5  C 2769 1130.86  2766.36 1133.5  2763 1133.5  C 2759.64 1133.5  2757 1130.86  2757 1127.5  C 2757 1124.14  2759.64 1121.5  2763 1121.5  Z " fill-rule="nonzero" fill="#ffffff" stroke="none" />
  <path d="M 2763 1122  C 2766.08 1122  2768.5 1124.42  2768.5 1127.5  C 2768.5 1130.58  2766.08 1133  2763 1133  C 2759.92 1133  2757.5 1130.58  2757.5 1127.5  C 2757.5 1124.42  2759.92 1122  2763 1122  Z " stroke-width="1" stroke="#797979" fill="none" />
  <path d="M 2763 1130.5  C 2761.32 1130.5  2760 1129.18  2760 1127.5  C 2760 1125.82  2761.32 1124.5  2763 1124.5  C 2764.68 1124.5  2766 1125.82  2766 1127.5  C 2766 1129.18  2764.68 1130.5  2763 1130.5  " fill-rule="nonzero" fill="#797979" stroke="none" />
</svg>