<?xml version="1.0" encoding="utf-8"?>
<svg version="1.1" xmlns:xlink="http://www.w3.org/1999/xlink" width="12px" height="12px" viewBox="2757 1148.5  12 12" xmlns="http://www.w3.org/2000/svg">
  <path d="M 2763 1148.5  C 2766.36 1148.5  2769 1151.14  2769 1154.5  C 2769 1157.86  2766.36 1160.5  2763 1160.5  C 2759.64 1160.5  2757 1157.86  2757 1154.5  C 2757 1151.14  2759.64 1148.5  2763 1148.5  Z " fill-rule="nonzero" fill="#ffffff" stroke="none" />
  <path d="M 2763 1149  C 2766.08 1149  2768.5 1151.42  2768.5 1154.5  C 2768.5 1157.58  2766.08 1160  2763 1160  C 2759.92 1160  2757.5 1157.58  2757.5 1154.5  C 2757.5 1151.42  2759.92 1149  2763 1149  Z " stroke-width="1" stroke="#797979" fill="none" />
  <path d="M 2763 1157.5  C 2761.32 1157.5  2760 1156.18  2760 1154.5  C 2760 1152.82  2761.32 1151.5  2763 1151.5  C 2764.68 1151.5  2766 1152.82  2766 1154.5  C 2766 1156.18  2764.68 1157.5  2763 1157.5  " fill-rule="nonzero" fill="#797979" stroke="none" />
</svg>