<?xml version="1.0" encoding="utf-8"?>
<svg version="1.1" xmlns:xlink="http://www.w3.org/1999/xlink" width="14px" height="13px" xmlns="http://www.w3.org/2000/svg">
  <g transform="matrix(1 0 0 1 -528 -82 )">
    <path d="M 13.7594501718213 0.781563126252504  C 13.9198167239404 0.868403473613893  14 0.968269873079491  14 1.0811623246493  C 14 1.1940547762191  13.9198167239404 1.2939211756847  13.7594501718213 1.38076152304609  L 4.30584192439863 6.5  L 13.7594501718213 11.6192384769539  C 13.9198167239404 11.7060788243153  14 11.8059452237809  14 11.9188376753507  C 14 12.0317301269205  13.9198167239404 12.1315965263861  13.7594501718213 12.2184368737475  L 12.5567010309278 12.8697394789579  C 12.3963344788087 12.9565798263193  12.2119129438717 13  12.0034364261168 13  C 11.794959908362 13  11.610538373425 12.9565798263193  11.4501718213058 12.8697394789579  L 0.240549828178694 6.79959919839679  C 0.0801832760595648 6.7127588510354  0 6.61289245156981  0 6.5  C 0 6.38710754843019  0.0801832760595648 6.2872411489646  0.240549828178694 6.20040080160321  L 11.4501718213058 0.130260521042084  C 11.610538373425 0.0434201736806943  11.794959908362 0  12.0034364261168 0  C 12.2119129438717 0  12.3963344788087 0.0434201736806943  12.5567010309278 0.130260521042084  L 13.7594501718213 0.781563126252504  Z " fill-rule="nonzero" fill="#333333" stroke="none" transform="matrix(1 0 0 1 528 82 )" />
  </g>
</svg>