<?xml version="1.0" encoding="utf-8"?>
<svg version="1.1" xmlns:xlink="http://www.w3.org/1999/xlink" width="16px" height="16px" xmlns="http://www.w3.org/2000/svg">
  <g transform="matrix(1 0 0 1 -970 -1857 )">
    <path d="M 15.7250859106529 0.96192384769539  C 15.9083619702176 1.0688042752171  16 1.19171676686707  16 1.33066132264529  C 16 1.46960587842351  15.9083619702176 1.59251837007348  15.7250859106529 1.69939879759519  L 4.92096219931272 8  L 15.7250859106529 14.3006012024048  C 15.9083619702176 14.4074816299265  16 14.5303941215765  16 14.6693386773547  C 16 14.8082832331329  15.9083619702176 14.9311957247829  15.7250859106529 15.0380761523046  L 14.3505154639175 15.8396793587174  C 14.1672394043528 15.9465597862391  13.9564719358534 16  13.7182130584192 16  C 13.4799541809851 16  13.2691867124857 15.9465597862391  13.085910652921 15.8396793587174  L 0.274914089347079 8.3687374749499  C 0.0916380297823597 8.26185704742819  0 8.13894455577822  0 8  C 0 7.86105544422178  0.0916380297823597 7.73814295257181  0.274914089347079 7.6312625250501  L 13.085910652921 0.160320641282565  C 13.2691867124857 0.0534402137608545  13.4799541809851 0  13.7182130584192 0  C 13.9564719358534 0  14.1672394043528 0.0534402137608545  14.3505154639175 0.160320641282565  L 15.7250859106529 0.96192384769539  Z " fill-rule="nonzero" fill="#333333" stroke="none" transform="matrix(1 0 0 1 970 1857 )" />
  </g>
</svg>