<?xml version="1.0" encoding="utf-8"?>
<svg version="1.1" xmlns:xlink="http://www.w3.org/1999/xlink" width="12px" height="12px" viewBox="296 312  12 12" xmlns="http://www.w3.org/2000/svg">
  <path d="M 302 312  C 305.36 312  308 314.64  308 318  C 308 321.36  305.36 324  302 324  C 298.64 324  296 321.36  296 318  C 296 314.64  298.64 312  302 312  Z " fill-rule="nonzero" fill="#ffffff" stroke="none" />
  <path d="M 302 312.5  C 305.08 312.5  307.5 314.92  307.5 318  C 307.5 321.08  305.08 323.5  302 323.5  C 298.92 323.5  296.5 321.08  296.5 318  C 296.5 314.92  298.92 312.5  302 312.5  Z " stroke-width="1" stroke="#797979" fill="none" />
  <path d="M 302 321  C 300.32 321  299 319.68  299 318  C 299 316.32  300.32 315  302 315  C 303.68 315  305 316.32  305 318  C 305 319.68  303.68 321  302 321  " fill-rule="nonzero" fill="#797979" stroke="none" />
</svg>