<?xml version="1.0" encoding="utf-8"?>
<svg version="1.1" xmlns:xlink="http://www.w3.org/1999/xlink" width="12px" height="12px" viewBox="396 180  12 12" xmlns="http://www.w3.org/2000/svg">
  <path d="M 402 180  C 405.36 180  408 182.64  408 186  C 408 189.36  405.36 192  402 192  C 398.64 192  396 189.36  396 186  C 396 182.64  398.64 180  402 180  Z " fill-rule="nonzero" fill="#ffffff" stroke="none" />
  <path d="M 402 180.5  C 405.08 180.5  407.5 182.92  407.5 186  C 407.5 189.08  405.08 191.5  402 191.5  C 398.92 191.5  396.5 189.08  396.5 186  C 396.5 182.92  398.92 180.5  402 180.5  Z " stroke-width="1" stroke="#797979" fill="none" />
  <path d="M 402 189  C 400.32 189  399 187.68  399 186  C 399 184.32  400.32 183  402 183  C 403.68 183  405 184.32  405 186  C 405 187.68  403.68 189  402 189  " fill-rule="nonzero" fill="#797979" stroke="none" />
</svg>